<svg width="36" height="36" viewBox="0 0 36 36" fill="none" xmlns="http://www.w3.org/2000/svg">
<g clip-path="url(#clip0_7_30113)">
<path d="M35.6019 16.28C33.0199 12.519 27.6819 18.054 17.9399 19.179C14.3329 19.595 11.0829 22.607 6.89289 22.32C5.17489 22.202 2.77589 17.259 0.97989 18.047C0.0558902 18.453 -0.36811 19.808 0.58189 20.826L11.1299 33.412C11.1299 33.412 11.6659 34.03 13.4719 33.602C13.9169 33.733 20.6069 31.052 24.4749 25.685C25.4009 24.4 26.5049 23.33 27.6479 22.436C31.3589 19.692 35.3929 18.736 35.3929 18.736C35.9089 18.31 36.0299 17.857 36.0019 17.464C36.0359 16.808 35.6019 16.28 35.6019 16.28Z" fill="#5C913B"/>
<path d="M11.4761 10.274C7.69306 15.524 1.06806 18.011 1.06806 18.011C-0.167943 19.058 0.876057 20.292 0.876057 20.292L11.3141 32.651C11.3141 32.651 11.8361 33.268 13.5941 32.84C13.5941 32.84 20.2191 30.358 24.0011 25.108C27.9001 19.698 34.9311 17.99 34.9311 17.99C36.1661 16.943 35.1231 15.707 35.1231 15.707L24.6851 3.35C24.6851 3.35 24.1631 2.732 22.4051 3.158C22.4051 3.158 15.3751 4.862 11.4761 10.274Z" fill="#A7D28B"/>
<path d="M22 19.5C25.0376 19.5 27.5 17.0376 27.5 14C27.5 10.9624 25.0376 8.5 22 8.5C18.9624 8.5 16.5 10.9624 16.5 14C16.5 17.0376 18.9624 19.5 22 19.5Z" fill="#77B255"/>
<path d="M12.8731 31.929C11.9921 31.929 11.6691 31.601 11.6251 31.551L2.21606 20.568C2.19806 20.547 1.72106 20.001 1.77906 19.307C1.81406 18.886 2.03206 18.511 2.42606 18.192L2.48906 18.154C2.55006 18.13 8.65206 15.622 12.0721 11.089L12.2721 11.239L12.0721 11.089C15.6901 6.293 21.9311 4.235 21.9931 4.215C23.7381 3.809 24.3091 4.389 24.3701 4.457L33.6551 15.501C33.6721 15.519 34.1481 16.067 34.0901 16.762C34.0551 17.182 33.8371 17.557 33.4431 17.876L33.3441 17.925C33.2831 17.94 27.2151 19.448 23.7001 24.106C20.2011 28.746 14.0931 31.748 14.0321 31.777C13.5681 31.887 13.1861 31.929 12.8731 31.929ZM12.0021 31.222C12.0031 31.222 12.4541 31.638 13.8671 31.31C13.8751 31.299 19.8761 28.348 23.3031 23.806C26.7401 19.251 32.5281 17.624 33.1701 17.455C33.4271 17.234 33.5691 16.989 33.5921 16.726C33.6341 16.246 33.2801 15.833 33.2771 15.829L23.9921 4.784C23.9901 4.784 23.5421 4.369 22.1281 4.697C22.0871 4.711 15.9931 6.723 12.4721 11.39C9.10606 15.851 3.23306 18.385 2.71406 18.603C2.44606 18.828 2.30006 19.079 2.27706 19.348C2.23706 19.824 2.58906 20.235 2.59206 20.239L12.0021 31.222Z" fill="#5C913B"/>
<path d="M21.276 22.166L21.27 28.106L21.767 28.696C22.736 27.812 23.667 26.818 24.472 25.7C25.307 24.542 26.277 23.551 27.3 22.714L26.817 22.139L21.276 22.166Z" fill="#FFAC33"/>
<path d="M26.7981 22.118L14.2921 7.30499C13.2761 8.14099 12.3001 9.11599 11.4701 10.269C10.6591 11.395 9.71511 12.386 8.73511 13.26L10.1971 14.991L10.1961 14.992L21.2711 28.106C22.2511 27.231 23.1841 26.23 23.9961 25.103C24.8261 23.951 25.8011 22.977 26.8161 22.141L26.7971 22.118H26.7981Z" fill="#FFE8B6"/>
<path d="M14.479 22.555C12.922 20.711 9.62602 23.703 8.68602 22.59C8.23102 22.051 8.52402 21.352 9.12202 20.848C10.127 19.998 10.852 20.493 11.307 20.108C11.63 19.836 11.613 19.503 11.421 19.274C10.975 18.747 9.83502 19.022 8.94902 19.534L8.51802 19.024C8.24902 18.706 7.77302 18.665 7.45502 18.934C7.13702 19.204 7.09702 19.678 7.36602 19.996L7.81202 20.525C7.13502 21.423 6.90502 22.615 7.70602 23.562C9.20202 25.332 12.539 22.39 13.589 23.634C13.953 24.066 13.851 24.89 13.085 25.536C11.937 26.507 10.897 26.052 10.43 26.446C10.202 26.637 10.161 27.001 10.404 27.29C10.791 27.747 12.024 27.649 13.209 26.911C13.211 26.913 13.211 26.915 13.211 26.917L13.698 27.493C13.967 27.811 14.444 27.85 14.762 27.583C15.081 27.313 15.12 26.837 14.851 26.519L14.364 25.943C14.359 25.937 14.351 25.933 14.345 25.927C15.144 24.949 15.414 23.66 14.479 22.555Z" fill="#5C913B"/>
<path d="M32.4559 32.588C32.4649 32.58 32.4749 32.574 32.4839 32.567C32.5519 32.499 32.6049 32.421 32.6649 32.346C32.7069 32.294 32.7539 32.244 32.7929 32.191C32.8279 32.141 32.8569 32.09 32.8889 32.039C34.3089 29.852 33.3789 26.144 30.5679 23.332C27.7559 20.52 24.0469 19.59 21.8609 21.011C21.8089 21.042 21.7579 21.071 21.7079 21.107C21.6549 21.146 21.6039 21.193 21.5539 21.234C21.4799 21.295 21.4019 21.347 21.3329 21.416C21.3239 21.425 21.3179 21.435 21.3109 21.444C21.2999 21.455 21.2869 21.462 21.2749 21.474L21.2809 21.479C20.2809 22.541 20.2689 24.184 21.2749 25.191C22.2829 26.199 23.9249 26.185 24.9879 25.185L24.9989 25.197C24.9779 25.217 24.9549 25.23 24.9349 25.25C23.8759 26.309 23.8509 27.998 24.8759 29.025C25.9019 30.05 27.5929 30.025 28.6509 28.966C28.6709 28.946 28.6839 28.923 28.7039 28.902L28.7149 28.914C27.7149 29.976 27.7019 31.619 28.7099 32.627C29.7169 33.633 31.3589 33.621 32.4209 32.621L32.4269 32.627C32.4369 32.613 32.4449 32.6 32.4559 32.588Z" fill="#E1E8ED"/>
<path d="M21.277 25.231C22.183 26.136 23.598 26.21 24.647 25.492C25.086 24.742 25.212 24.029 25.212 23.806C23.005 25.452 21.035 23.815 20.594 22.836C20.411 23.682 20.633 24.586 21.277 25.231ZM28.576 29.071C28.874 28.652 29.105 28.247 29.213 27.973C27.808 29.261 25.122 28.318 24.308 26.275C23.95 27.225 24.133 28.319 24.879 29.065C25.881 30.067 27.513 30.059 28.576 29.071ZM32.43 32.666L32.459 32.63C32.469 32.622 32.479 32.616 32.487 32.608C32.556 32.54 32.609 32.462 32.668 32.388C32.711 32.335 32.7571 32.286 32.7961 32.232C32.8321 32.183 32.8611 32.131 32.8931 32.08C32.958 31.98 32.993 31.862 33.048 31.756C30.52 32.887 28.633 30.968 28.104 30.011C27.809 30.928 28.001 31.955 28.713 32.668C29.719 33.675 31.361 33.663 32.424 32.662L32.43 32.666Z" fill="#CCD6DD"/>
<path d="M13.9561 12.498L13.9841 12.476C14.0531 12.408 14.1061 12.33 14.1651 12.256C14.2071 12.204 14.2531 12.155 14.2921 12.101C14.3281 12.051 14.3571 12 14.3891 11.949C15.8091 9.762 14.8781 6.053 12.0671 3.242C9.25506 0.430004 5.54706 -0.500996 3.36006 0.919004C3.30906 0.951004 3.25706 0.980004 3.20706 1.016C3.15306 1.055 3.10406 1.101 3.05206 1.143C2.97806 1.203 2.90006 1.255 2.83206 1.324C2.82306 1.333 2.81706 1.344 2.81006 1.352C2.79906 1.362 2.78506 1.371 2.77406 1.382L2.77906 1.387C1.77906 2.449 1.76706 4.092 2.77406 5.099C3.78106 6.106 5.42406 6.094 6.48606 5.094L6.49706 5.105C6.47606 5.124 6.45306 5.138 6.43306 5.158C5.37406 6.217 5.34906 7.906 6.37506 8.933C7.40106 9.96 9.09106 9.934 10.1501 8.875C10.1701 8.855 10.1831 8.832 10.2031 8.811L10.2141 8.822C9.21406 9.884 9.20106 11.527 10.2091 12.534C11.2161 13.541 12.8581 13.529 13.9201 12.528L13.9251 12.534C13.9361 12.523 13.9451 12.51 13.9561 12.498Z" fill="#E1E8ED"/>
<path d="M2.7729 5.1C3.6789 6.006 5.0939 6.08 6.1429 5.36C6.5819 4.61 6.7069 3.898 6.7069 3.675C4.5009 5.32 2.5299 3.682 2.0899 2.703C1.9069 3.55 2.1289 4.455 2.7729 5.1ZM10.0739 8.938C10.3709 8.519 10.6019 8.116 10.7089 7.842C9.3029 9.13 6.6169 8.186 5.8039 6.143C5.4459 7.093 5.6289 8.187 6.3739 8.933C7.3779 9.936 9.0109 9.927 10.0739 8.938ZM13.9249 12.535C13.9359 12.524 13.9449 12.511 13.9549 12.499L13.9829 12.477C14.0519 12.409 14.1049 12.331 14.1639 12.257C14.2059 12.205 14.2519 12.156 14.2909 12.102C14.3269 12.052 14.3559 12.001 14.3879 11.95C14.4529 11.85 14.4879 11.731 14.5429 11.625C12.0149 12.756 10.1279 10.838 9.5989 9.881C9.3039 10.798 9.4959 11.825 10.2079 12.537C11.2149 13.544 12.8569 13.532 13.9189 12.531L13.9249 12.535Z" fill="#CCD6DD"/>
</g>
<defs>
<clipPath id="clip0_7_30113">
<rect width="36" height="36" fill="white"/>
</clipPath>
</defs>
</svg>
